<svg aria-hidden="true" style="position: absolute; width: 0; height: 0; overflow: hidden;" version="1.1" xmlns="http://www.w3.org/2000/svg" xmlns:xlink="http://www.w3.org/1999/xlink">
<defs>
<symbol id="icon-heart-outlined" viewBox="0 0 20 20">
<path d="M17.19 4.156c-1.672-1.535-4.383-1.535-6.055 0l-1.135 1.041-1.136-1.041c-1.672-1.535-4.382-1.535-6.054 0-1.881 1.726-1.881 4.519 0 6.245l7.19 6.599 7.19-6.599c1.88-1.726 1.88-4.52 0-6.245zM16.124 9.375l-6.124 5.715-6.125-5.715c-0.617-0.567-0.856-1.307-0.856-2.094s0.138-1.433 0.756-1.999c0.545-0.501 1.278-0.777 2.063-0.777s1.517 0.476 2.062 0.978l2.1 1.825 2.099-1.826c0.546-0.502 1.278-0.978 2.063-0.978s1.518 0.276 2.063 0.777c0.618 0.566 0.755 1.212 0.755 1.999s-0.238 1.528-0.856 2.095z"></path>
</symbol>
<symbol id="icon-light-bulb" viewBox="0 0 20 20">
<path d="M7.186 19.172c0.789 0.51 1.701 0.855 2.814 0.828 1.111 0.027 2.025-0.318 2.814-0.828l-0.017-2.172h-5.594l-0.017 2.172zM12.697 16c0-4.357 4.63-5.848 4.283-10.188-0.218-2.738-2.073-5.81-6.98-5.81s-6.762 3.072-6.981 5.811c-0.347 4.339 4.284 5.83 4.284 10.187h5.394zM5 6c0.207-2.598 2.113-4 5-4s4.654 1.371 4.861 3.969c0.113 1.424-0.705 2.373-1.809 3.926-0.814 1.146-1.603 2.343-2.052 4.105h-2c-0.449-1.762-1.238-2.959-2.053-4.106-1.103-1.552-2.061-2.47-1.947-3.894z"></path>
</symbol>
<symbol id="icon-star-empty" viewBox="0 0 32 32">
<path d="M32 12.408l-11.056-1.607-4.944-10.018-4.944 10.018-11.056 1.607 8 7.798-1.889 11.011 9.889-5.199 9.889 5.199-1.889-11.011 8-7.798zM16 23.547l-6.983 3.671 1.334-7.776-5.65-5.507 7.808-1.134 3.492-7.075 3.492 7.075 7.807 1.134-5.65 5.507 1.334 7.776-6.983-3.671z"></path>
</symbol>
</defs>
</svg>
